<svg xmlns="http://www.w3.org/2000/svg" viewBox="0 0 800 640" role="img" aria-label="Flash X logo">
  <title>Flash X</title>
  <defs>
    <linearGradient id="flashXGradient" x1="120" y1="40" x2="720" y2="600" gradientUnits="userSpaceOnUse">
      <stop offset="0" stop-color="#7C3AED"/>
      <stop offset="1" stop-color="#0EA5E9"/>
    </linearGradient>
  </defs>

  <g fill="url(#flashXGradient)">
    <path d="M434.8 54.1C446.7 62.7 451.1 78.3 445.7 91.9L367.3 288L512 288C525.5 288 537.5 296.4 542.1 309.1C546.7 321.8 542.8 336 532.5 344.6L244.5 584.6C233.2 594 217.1 594.5 205.2 585.9C193.3 577.3 188.9 561.7 194.3 548.1L272.7 352L128 352C114.5 352 102.5 343.6 97.9 330.9C93.3 318.2 97.2 304 107.5 295.4L395.5 55.4C406.8 46 422.9 45.5 434.8 54.1z"/>
    <path d="M610 184L674 248L738 184L772 218L708 282L772 346L738 380L674 316L610 380L576 346L640 282L576 218L610 184Z"/>
  </g>
</svg>
